<?xml version="1.0" encoding="UTF-8" standalone="no"?>
<!--?xml version="1.0" encoding="UTF-8" standalone="no"?-->

<svg
   xmlns:mapsvg="https://mapsvg.com"
   xmlns:dc="http://purl.org/dc/elements/1.1/"
   xmlns:cc="http://creativecommons.org/ns#"
   xmlns:rdf="http://www.w3.org/1999/02/22-rdf-syntax-ns#"
   xmlns:svg="http://www.w3.org/2000/svg"
   xmlns="http://www.w3.org/2000/svg"
   xmlns:sodipodi="http://sodipodi.sourceforge.net/DTD/sodipodi-0.dtd"
   xmlns:inkscape="http://www.inkscape.org/namespaces/inkscape"
   height="1510.843"
   width="676.31"
   mapsvg:geoviewbox="19.264243 42.660316 21.057021 39.645057"
   id="svg2"
   version="1.1"
   inkscape:version="0.91 r13725"
   sodipodi:docname="albania.svg">
  <metadata
     id="metadata19">
    <rdf:RDF>
      <cc:Work
         rdf:about="">
        <dc:format>image/svg+xml</dc:format>
        <dc:type
           rdf:resource="http://purl.org/dc/dcmitype/StillImage" />
        <dc:title></dc:title>
      </cc:Work>
    </rdf:RDF>
  </metadata>
  <defs
     id="defs17" />
  <sodipodi:namedview
     pagecolor="#ffffff"
     bordercolor="#666666"
     borderopacity="1"
     objecttolerance="10"
     gridtolerance="10"
     guidetolerance="10"
     inkscape:pageopacity="0"
     inkscape:pageshadow="2"
     inkscape:window-width="1138"
     inkscape:window-height="633"
     id="namedview15"
     showgrid="false"
     showguides="true"
     inkscape:guide-bbox="true"
     fit-margin-top="0"
     fit-margin-left="0"
     fit-margin-right="0"
     fit-margin-bottom="0"
     inkscape:zoom="4.7645231"
     inkscape:cx="346.48788"
     inkscape:cy="26.974926"
     inkscape:window-x="0"
     inkscape:window-y="0"
     inkscape:window-maximized="0"
     inkscape:current-layer="svg2">
    <sodipodi:guide
       position="228.29679,712.65639"
       orientation="0,1"
       id="guide4147" />
  </sodipodi:namedview>
  <path
     id="AL-01"
     title="Berat"
     d="m 209.1714,909.76247 1.28325,0.99769 -0.67869,5.23645 2.94291,0.99581 0,0 4.94289,-1.69398 2.79272,1.49558 0,0 -0.33839,1.99538 -5.35923,0.0973 -1.13116,2.29678 5.16912,2.69168 -0.45247,6.37913 1.50948,2.14227 1.50948,-4.43525 2.94292,-0.2995 5.13299,-12.8613 5.62158,-2.59436 9.35916,0.0992 13.05682,-7.93004 16.1138,0.94809 4.67863,-5.18878 8.64244,-1.24759 2.86687,17.25837 -0.49049,12.11729 1.5475,6.47833 2.9049,-0.84698 7.24512,-6.38105 1.62355,1.54521 -1.09504,4.58596 3.7737,3.83815 1.96195,0.54748 5.92385,-1.74356 1.58553,7.52369 7.73751,10.11239 2.5646,8.91437 8.86867,6.91899 -0.45246,6.27422 11.20703,1.49367 10.30211,-4.28075 4.18814,3.23537 6.15199,7.46457 2.49046,1.14458 13.5473,-1.69208 11.28308,-2.78704 0,0 6.15199,8.36116 3.31933,11.34083 5.17102,6.7644 5.43337,15.6598 4.56646,5.5188 4.07598,1.2896 -0.11407,7.951 2.34027,5.265 4.90486,3.6761 8.64244,-1.4899 10.52834,2.2854 0.45246,2.8309 -1.73571,6.4554 -6.3402,10.3262 -1.05701,4.2195 5.88773,9.1797 1.58362,15.3774 3.35926,12.3481 0.79277,9.912 0,0 -6.86871,0.5952 -4.79079,2.1805 -5.32121,0.4961 -4.9809,-2.0336 -4.53035,-0.2957 -3.01896,3.2715 -1.50758,6.1445 0.79277,4.7557 3.28131,6.6367 -0.94295,3.7638 -4.41437,0.6449 -5.43527,-2.5774 -11.4713,0.6448 -5.81168,2.2283 -3.54747,3.0692 3.54747,2.9225 0.30227,2.873 -12.41614,8.3153 -4.26419,-7.0793 -14.26402,-14.9023 -2.82885,-8.6206 -6.26415,-1.6349 -6.83069,0.4464 -0.64257,-9.168 -8.30214,-13.6302 -8.64054,-9.4217 -8.79263,-3.2735 -3.88777,-4.1664 -3.47142,-0.8432 -5.84781,2.3828 -2.30225,10.015 -4.34023,-5.2536 -2.2262,-4.6126 -1.65966,-0.6449 -2.75661,0.1965 -4.60259,2.6802 -9.05688,-2.8767 -5.43337,-0.052 -10.22796,4.7614 -23.24486,-7.3406 0,0 0.41444,-7.045 -1.43344,-5.0094 -5.81169,-7.8919 -5.01892,0.7937 -1.09314,-0.7459 -0.0761,-3.4243 -3.05698,-1.8865 -2.07411,-3.1763 -2.26612,-11.3714 -8.52838,-12.9148 -2.7528,-0.248 0.41444,-2.7336 6.90483,-8.4489 -2.71669,-17.4014 -5.05695,-4.6738 -2.90489,-8.00819 -9.4333,-10.4481 -1.69959,-5.3261 0.30227,-6.7702 -3.66153,-11.84833 -7.92382,-13.19892 0.19011,-12.40725 1.39541,1.59477 1.62165,0.0973 3.28321,-3.33834 -3.16915,-2.74127 0.52851,-1.79508 3.73568,-3.09036 -2.94482,-0.94621 -0.75474,-1.39638 0.71862,-1.84467 2.52657,-0.89852 -0.41444,-3.68744 4.86874,0.54748 2.07601,-1.79508 2.15016,4.08806 1.24522,0.0496 4.37826,-8.3268 z"
     inkscape:connector-curvature="0" />
  <path
     id="AL-09"
     title="Dibër"
     d="m 361.28673,402.08365 2.52847,0.20411 3.47143,2.73555 7.92382,-2.58484 9.32114,-5.87742 1.69959,-2.27964 8.79263,-3.54627 0.5266,-5.98234 2.94482,-0.45593 10.41427,8.00825 1.32128,2.07742 0.67869,10.94409 -2.64254,6.68625 0.15209,4.35514 7.62345,11.13869 4.94288,1.87328 4.56646,-0.3033 4.33833,-2.53146 10.34013,-3.24103 0.90683,-3.84771 -1.13306,-6.63284 1.09504,-1.67109 11.43327,-0.76118 21.99963,1.5719 11.28308,-2.98923 -0.22623,-2.63445 -3.50755,-2.43224 0.6787,-2.58294 2.45243,-0.30334 4.03796,2.63444 0,0 1.09503,12.05438 -1.13306,10.0246 4.37826,13.4641 0.0741,4.40284 -9.39528,0.15054 -0.49049,4.14911 -4.94288,1.921 0.79086,4.04798 -5.50941,9.15283 -0.26426,6.92853 -2.03798,6.4192 1.5475,5.50733 2.94482,4.09379 0.98097,8.84189 -5.01893,13.7884 4.03796,5.20021 -0.41635,7.11737 2.94482,2.17088 3.65964,5.1983 -0.90683,1.11025 1.84978,2.62301 0.5285,3.12852 2.2262,2.52379 1.39732,10.84301 -6.19001,2.52188 -6.83069,5.9995 -9.62151,1.51278 -3.095,1.66347 -6.94285,-0.60282 -2.71859,0.9557 -0.37642,1.11025 4.03796,2.9225 -0.15019,4.13387 -6.37822,8.61679 0.22623,4.38372 3.66154,2.6707 4.41437,0.7058 -0.26425,3.97933 2.67866,3.1209 4.22616,1.56235 3.35926,8.66065 0.79277,6.99722 2.34026,4.37993 -1.58552,2.96828 0.5285,1.71115 3.05699,2.61728 2.33836,-0.50362 1.47336,1.25903 4.98091,0.30142 -0.71862,3.77329 6.83068,5.63515 1.24523,4.37611 0.22813,3.11709 -2.49235,1.35823 -1.69769,5.73244 -1.77374,1.70926 2.30224,2.91485 0,1.76076 -4.56646,4.42376 -0.94295,3.96982 -3.50945,2.31206 -0.5285,4.87402 -3.58359,3.71797 -4.94479,-4.5707 -1.81176,-0.45403 -0.45246,5.02473 -2.37639,2.26051 2.49046,2.91298 4.07407,12.85746 -0.75474,2.61154 1.50948,3.61498 0,0 -4.03605,0.60282 -5.51132,-1.00533 -6.71661,3.26396 -3.28322,-0.75351 -5.20713,1.55663 -4.98091,-0.70201 -3.66154,-2.81185 -2.30034,-5.67332 -1.84978,-1.10449 -12.67849,7.38063 -4.71855,1.60621 -3.65964,-0.75351 0.60265,-2.45893 3.54937,-4.4696 1.58363,-11.14823 -0.41444,-4.32077 -1.73572,-2.96257 -12.26405,-7.78887 1.16918,-10.15243 -2.2262,-3.06555 -5.62348,-3.46999 -8.37628,-0.55322 -4.19005,1.35823 -6.03792,6.18262 -11.9998,8.64543 -7.05691,2.15943 0,0 -0.98098,-5.82785 -2.79272,-2.61344 -5.28319,-1.05683 -5.58355,1.81038 -3.51135,-0.80505 -4.33833,-4.8244 -11.54734,-17.85165 -3.35926,-2.61536 -4.94288,0.9042 -9.24509,12.77543 -0.83079,-0.10119 -1.32127,-7.8957 -5.50941,-7.24328 -5.39535,-3.67221 -7.209,-1.2075 -3.92389,-2.81761 -5.73565,-15.80284 -8.15005,-11.58127 -15.73738,-12.18785 -8.07591,-0.90614 0,0 -3.24519,-6.55081 -7.65957,-9.52482 -8.98084,-6.85605 -6.22803,-10.33748 0,0 -2.82885,-18.56318 -7.39721,-10.5492 0.8688,-10.04562 -0.90493,-5.60462 -2.98284,-5.45584 -9.05498,-9.34552 9.31924,-4.95222 8.15195,-8.74267 8.79263,9.95595 12.45226,0.75922 10.1139,-4.19489 4.75468,1.56618 4.90486,3.23343 9.24509,2.77944 3.66154,-7.93385 2.64064,-2.37501 8.18997,-4.09381 5.24516,1.76842 4.41438,6.8236 4.56646,0.6562 4.07598,-2.7794 0.67869,-5.50734 3.69766,-4.34752 2.52848,-1.31436 0.79276,-3.18575 3.81172,-3.53867 1.24523,-4.55159 14.37618,-0.90996 21.05859,-3.69126 4.26418,0.25178 -1.8878,-9.86439 -0.30227,-8.7026 -4.7927,-1.61958 -1.24333,-1.97441 0.82889,-15.08747 5.24516,-2.83476 3.05698,-10.68656 4.26419,-1.56998 z"
     inkscape:connector-curvature="0" />
  <path
     id="AL-02"
     title="Durrës"
     d="m 80.453026,552.50065 13.623346,2.62299 6.340198,-0.45401 10.56636,-3.12662 0,0 5.54744,3.47954 6.07594,-0.95764 1.05702,0.45401 -0.038,2.51997 3.4334,-1.00913 14.11383,4.28648 12.6785,5.59507 11.77356,1.05877 8.60442,-0.95766 27.05658,-7.26046 7.50938,-3.17619 10.07588,-6.70724 0,0 6.22613,10.33556 8.98084,6.85603 7.65957,9.52481 3.24519,6.55083 0,0 -0.3403,7.35394 -3.13112,3.32498 -4.90486,9.26541 -4.86874,4.78244 -4.98091,7.5504 -2.90489,0.65433 -3.50945,-3.01977 -4.94478,3.77519 -12.22604,1.76074 -9.69945,7.1956 -4.90486,6.33908 -7.13296,4.07471 -9.92379,0.70393 -7.58543,-5.68286 -0.94295,-22.74663 -5.3212,2.76986 0.86881,5.53597 -4.52845,0.50361 -3.05508,3.2201 -1.50948,0.10119 -2.60452,-2.768 -2.30224,-0.5532 -5.50941,3.47191 -3.09501,-0.95574 -2.67866,4.42763 2.03799,13.38205 -1.16918,10.50918 7.09303,12.36527 0,3.21821 -2.2262,5.6275 -0.11406,5.47681 2.94291,13.1093 -0.22623,2.71072 -10.79259,13.55375 -4.37636,9.83577 -3.20907,-3.91447 -4.07597,-2.25863 -13.32107,2.60963 -10.188047,-2.00681 0,0 -3.209071,-9.58587 -5.094972,-6.67673 -0.07604,-1.75694 -3.735679,-3.71607 -1.999967,-1.40595 -1.395414,-0.70389 -5.773667,-0.85273 -0.490486,0.80311 -2.528475,-0.70199 -1.623547,3.81526 0.830784,2.00873 -2.112132,-2.66305 -4.640606,-1.65772 -0.642575,-3.71607 -4.302209,-3.01408 -0.94295,-13.61671 0.452463,-9.54962 1.357392,-2.21093 0.03802,-2.66495 -1.13306,-2.76607 -5.094972,-4.02129 -0.716718,-2.76608 -2.340265,-1.90955 -2.754707,-4.67753 5.245159,2.86719 1.057017,2.06214 -1.661569,-1.70924 0.640673,1.70924 3.659635,2.66498 6.75464,0.40252 3.999933,-2.01067 2.037988,-2.16323 2.566497,-6.03576 0.07604,-0.60282 -1.395414,2.31394 0.528508,-3.7733 1.357392,0.65433 -0.564629,-2.01256 -0.604553,-3.42038 0.678696,-0.5036 -0.226232,-0.50363 -0.952456,0.57229 -0.859301,-0.9748 0.18821,1.35823 -1.811757,-1.15793 1.961944,3.92396 -0.640673,0.30146 0.490486,4.1758 -1.169182,-5.38336 -2.754707,-4.67943 7.283148,-1.50892 7.849679,-5.43486 3.697656,-4.02703 7.321171,-11.83112 2.490452,-7.15172 -0.03802,-12.54274 -1.13116,-5.94608 -2.528474,-3.3765 -12.94275,-5.03997 -3.321237,-2.92441 -0.94295,-1.56236 0.302277,-3.27732 -4.414375,-9.42944 -1.661569,-1.41165 9.925689,4.08617 2.268023,2.37119 z"
     inkscape:connector-curvature="0" />
  <path
     id="AL-03"
     title="Elbasan"
     d="m 358.45598,665.65963 7.05691,-2.15943 11.9998,-8.64542 6.03792,-6.18263 4.19005,-1.35823 8.37628,0.55322 5.62348,3.46997 2.2262,3.06558 -1.16918,10.15242 12.26405,7.78888 1.73572,2.96256 0.41444,4.32077 -1.58363,11.14823 -3.54937,4.4696 -0.60265,2.45893 3.65964,0.75351 4.71855,-1.60621 12.67849,-7.38062 1.84978,1.10448 2.30034,5.67332 3.66154,2.81185 4.98091,0.70201 5.20713,-1.55663 3.28322,0.75351 6.71661,-3.26396 5.51132,1.00533 4.03605,-0.60282 0,0 1.05702,1.20562 -1.09314,4.86831 0.6787,6.62518 3.69766,8.73127 -1.96195,2.70885 -0.60455,4.51346 6.3402,10.33174 1.28324,6.31617 8.67857,3.30975 0.98287,5.01326 7.24513,11.32373 1.05511,4.35893 3.7737,5.81068 0.83079,5.05903 -2.41441,2.30441 -2.26422,6.50887 3.0931,3.85342 1.58553,5.00564 1.8859,1.15222 0,0 4.53034,13.10924 -4.37825,19.50748 -0.45247,8.94872 -2.5665,-6.40014 -1.77373,-1.19796 -13.92562,-2.00112 -4.37635,0.40061 -7.92573,3.19912 -8.07591,0.70007 -8.56449,6.54891 -7.50938,4.048 -10.15192,1.7493 -2.75471,3.94881 -1.47146,14.68688 -2.11213,6.84271 -7.28315,8.93725 -0.30228,2.6955 5.1311,10.08374 10.03785,11.77391 7.92572,15.5606 8.11204,12.36337 -2.45243,19.78219 -0.86691,2.34255 -4.00183,4.13385 -0.82889,5.3776 -2.26422,2.3407 -3.4334,1.39254 -2.9068,7.17083 -2.79273,-0.0515 -7.96184,-3.63406 -9.0949,1.14646 -9.20707,-2.24142 -2.07602,1.29526 -1.99996,4.72905 -2.67866,2.09075 -13.24503,-1.44408 2.41441,5.57411 0,0 -11.28308,2.78704 -13.5473,1.69208 -2.49046,-1.14458 -6.15199,-7.46457 -4.18814,-3.23537 -10.30211,4.28076 -11.20703,-1.49368 0.45246,-6.27421 -8.86867,-6.91899 -2.5646,-8.91438 -7.73751,-10.11238 -1.58553,-7.52369 -5.92385,1.74355 -1.96195,-0.54748 -3.7737,-3.83815 1.09504,-4.58596 -1.62355,-1.54521 -7.24512,6.38105 -2.9049,0.84699 -1.5475,-6.47833 0.49049,-12.11729 -2.86687,-17.25837 -8.64244,1.24759 -4.67863,5.18878 -16.1138,-0.9481 -13.05682,7.93005 -9.35916,-0.0992 -5.62158,2.59436 -5.13299,12.8613 -2.94292,0.29949 -1.50948,4.43525 -1.50948,-2.14227 0.45247,-6.37913 -5.16912,-2.69167 1.13116,-2.29678 5.35923,-0.0973 0.33839,-1.99538 0,0 -2.26422,-1.49557 -5.47139,1.69398 0,0 -2.94291,-0.99581 0.67869,-5.23645 -1.28325,-0.9977 0,0 2.68057,-2.34445 -1.43534,-8.78085 -8.30214,-7.43404 0.076,-2.5448 3.4334,-6.28948 0.49049,-9.23484 -0.30037,-6.49169 -4.114,-7.69157 -0.3384,-9.1433 4.18814,-10.99371 -1.81176,-1.19989 -9.28311,0.0477 -15.47122,-5.4959 -6.19001,1.9477 -4.86684,-0.9004 -3.09501,-2.74891 -5.39725,-10.45194 -4.67863,-5.34901 0,0 4.18815,-4.05182 6.79266,-2.65348 3.92579,-11.90938 12.37622,-10.11047 1.66157,-8.56145 3.28321,-3.10563 4.07598,-0.50173 3.99993,4.25785 3.39538,1.35251 8.5664,-3.85722 3.32124,1.30289 1.73571,-0.5017 3.28321,-4.15674 3.77371,-2.70503 5.01702,0.70203 2.79463,-7.46459 4.7908,-2.30633 2.86877,-5.10865 5.88583,-0.8031 3.7737,-2.80615 9.05689,-3.85914 6.49228,-6.51648 13.80966,-9.47713 11.17091,-21.82141 4.41438,-4.9675 5.6615,-1.60625 8.90479,5.61992 5.20714,1.4059 3.17105,-0.80309 11.69752,-8.93345 6.19001,-3.21245 0.90493,-3.81528 -2.11403,-7.63245 2.03799,-4.82249 6.98087,-4.8206 18.34,-6.93427 2.22619,-1.40591 z"
     inkscape:connector-curvature="0" />
  <path
     id="AL-04"
     title="Fier"
     d="m 64.94378,840.81296 4.15012,-1.99922 4.944785,-0.40061 -0.114067,-2.8996 -2.150154,-1.7989 -0.792762,-5.5493 1.69769,-2.80042 2.152055,-1.05111 -0.604553,-3.30019 1.471459,-0.19841 1.735712,3.00069 1.545602,-0.15053 0.302276,-1.70161 -2.452431,-1.3983 -1.207204,-3.1514 2.150154,-1.19992 1.133061,1.40018 2.490453,-2.60198 2.980939,1.1522 3.397281,8.1513 1.207204,0.79933 1.849779,-2.19949 -0.302276,-6.05103 2.678662,3.65119 2.226199,-3.1514 1.583623,-0.44831 4.152023,2.00112 5.05695,-0.15053 1.62355,1.50131 3.24519,0.19839 0.94295,-1.1522 -0.94295,-3.80002 0.52851,-2.3006 6.75464,-0.599 1.13116,-4.40476 1.66157,-0.84888 3.24519,0.70013 2.45433,-2.00114 3.50945,4.00224 1.58552,-0.35101 2.5665,-3.70083 1.8878,0.54942 -1.69959,3.15141 0.56653,0.8508 4.15202,-3.05411 0.56653,3.60349 1.20721,1.35063 2.49045,-3.2506 4.71665,-0.80124 6.3383,6.25323 0,0 4.67862,5.35093 5.39725,10.45194 3.09311,2.74887 4.86874,0.90042 6.18811,-1.94769 15.47122,5.4978 9.28311,-0.0477 1.81176,1.19989 -4.18814,10.99372 0.3403,9.14325 4.114,7.69161 0.30227,6.49167 -0.49048,9.23489 -3.43341,6.28946 -0.076,2.54477 8.30214,7.43408 1.43344,8.78082 -2.67866,2.34448 0,0 -1.62355,1.04729 -4.37825,8.32683 -1.24523,-0.0496 -2.15016,-4.08804 -2.07601,1.79318 -4.86874,-0.54749 0.41445,3.68937 -2.52848,0.89849 -0.71672,1.84469 0.75474,1.39637 2.94292,0.94617 -3.73568,3.09038 -0.52851,1.79318 3.16915,2.74318 -3.28321,3.33837 -1.62355,-0.0992 -1.39541,-1.59479 -0.19012,12.40727 7.92383,13.19889 3.65963,11.85024 -0.30228,6.77019 1.6996,5.3261 9.4333,10.44816 2.90489,8.00819 5.05695,4.6739 2.71669,17.4015 -6.90483,8.4487 -0.41444,2.7337 2.7547,0.2479 8.52838,12.9168 2.26422,11.3713 2.07411,3.1763 3.05698,1.8865 0.076,3.4243 1.09313,0.7457 5.01893,-0.7933 5.81169,7.8918 1.43344,5.0113 -0.41445,7.0429 0,0 -6.90482,-0.5455 -2.30225,1.0436 -7.16908,7.1402 -4.03795,6.5967 -10.03786,8.5767 -3.0931,8.0292 -3.69766,5.1525 -4.34023,3.6168 -6.41624,2.2779 0,0 -3.99993,-5.4484 -2.68057,-1.5374 -0.60265,-4.5098 -3.47142,-0.6925 -3.32124,-3.3212 -2.26422,-0.1468 1.58362,-9.2215 2.26422,-3.7695 -1.09504,-5.3051 0.45247,-3.819 -3.88587,-0.4961 -5.92576,2.6288 -2.37638,-2.083 0,-2.6785 5.88773,-9.624 -0.15019,-3.2239 -4.22806,-1.0434 -4.114,1.0434 -6.30028,-0.2499 -1.77373,-1.8351 -7.01889,-2.7298 -4.71666,-3.2259 -2.33836,-3.5251 -10.18804,-5.1621 -3.28322,-0.1984 -3.73568,4.172 -1.62354,-0.6944 -1.50948,-3.6762 -1.84978,-1.2895 -1.16918,0 -1.20721,2.8291 -3.47142,-0.7955 -1.16918,-2.6801 0.64067,-4.3687 -2.2262,0.248 -0.94485,-1.9858 0.3403,-1.3412 2.94291,-0.7953 0.11407,-1.6883 -4.79269,-2.4837 -3.69766,3.7752 -3.7737,1.4403 -1.96195,-3.2773 0.30228,-7.4514 -3.359259,-2.1365 -4.452397,0.9444 -0.678696,-1.242 0.75474,-1.8867 -1.471458,-2.2356 -6.338297,0.8947 -2.528475,-2.4341 -1.659668,2.0353 -1.735712,-0.4464 -0.190111,-3.676 3.359259,-3.8762 -6.075944,-1.6902 -2.26422,-2.436 -3.621613,0.7954 -2.528475,-4.0251 1.961945,-5.6677 -1.433436,-1.3428 -7.961844,4.5725 -3.283215,0.1487 -1.471459,2.436 0.980973,2.4857 -1.433436,0.9939 -5.43337,-2.2873 -2.376386,-6.0644 -1.735712,-1.3905 -14.037788,-4.7254 -5.697623,1.343 -6.226132,6.5127 -5.169115,-1.242 0,0 -2.037988,-3.5806 3.773701,-4.3265 3.321237,-0.7476 -4.302209,2.5867 8.566396,-2.7852 2.566497,-2.5371 1.509481,1.2934 1.13306,-0.7956 -0.868806,-2.8843 0.03802,2.3388 -2.264221,-1.3431 -5.773667,4.0786 9.208971,-10.14676 6.716617,-13.87996 0.226232,-18.26941 0.07605,-3.33644 0.75474,-4.08425 1.471458,1.84277 1.585525,-1.4937 0.528508,-4.93121 -1.547502,-3.08844 -1.433436,-0.44641 0.07604,-2.29296 3.283215,-12.55606 0.944851,1.095 0.490486,1.14836 3.433403,-4.88545 -0.56463,3.04078 2.754707,-1.79319 -2.528475,-2.99115 -0.75474,1.79507 -1.887801,-0.99769 -2.604519,2.79277 -1.50948,-0.94809 6.416242,-12.26417 3.585491,-13.0158 2.904895,-4.49057 -2.642542,8.63014 0.980972,0.94619 2.302243,-0.19839 2.376386,-1.79509 -0.152088,-4.88928 -1.018995,-1.84469 -1.133061,0.14866 0.340299,-2.44371 -2.942917,-3.49288 -1.018994,1.54711 0.94295,4.69086 -0.792762,1.99538 -1.207205,-16.46667 4.152022,3.24485 2.754707,-0.29948 -0.830785,-2.54478 -1.131159,1.79505 -0.114067,-7.13644 -4.152022,4.34176 1.583624,-3.74464 0.75474,-0.69823 5.05695,-6.33906 11.359125,-8.43937 0.378321,0.94999 -9.397181,6.2914 -3.509447,4.09376 5.471391,1.79697 3.169149,-0.74969 4.296506,0.88708 1.661569,-1.198 -0.490486,-3.4948 2.300341,1.49752 -2.678662,-4.39329 6.678595,-8.93918 -3.697656,1.64818 1.283248,0.5475 -2.302243,0.2995 0.868807,0.79929 -2.340265,-0.29948 5.585458,-4.14529 1.849779,-3.1972 0.906829,-9.69081 -2.792729,-7.99487 -0.564629,0.65048 1.395413,2.74701 -5.433369,-3.54628 -0.302276,-1.60053 -4.604486,-0.39869 1.133061,1.7493 2.566497,0.89852 -1.923922,-0.0477 -3.735679,-0.95 -0.722421,-1.99726 z"
     inkscape:connector-curvature="0" />
  <path
     id="AL-05"
     title="Gjirokastër"
     d="m 243.58718,1088.4772 23.24486,7.3408 10.22796,-4.7615 5.43337,0.052 9.05688,2.8767 4.60259,-2.6802 2.75661,-0.1965 1.65966,0.6448 2.2262,4.6127 4.34023,5.2535 2.30225,-10.0149 5.84781,-2.3828 3.47142,0.8432 3.88777,4.1664 8.79263,3.2735 8.64054,9.4216 8.30214,13.6303 0.64257,9.168 6.83069,-0.4464 6.26415,1.6349 2.82885,8.6206 14.26402,14.9023 4.26419,7.0793 12.41614,-8.3154 -0.30227,-2.8729 -3.54747,-2.9225 3.54747,-3.0693 5.81168,-2.2282 11.4713,-0.6448 5.43527,2.5774 4.41437,-0.6449 0.94295,-3.7638 -3.28131,-6.6367 -0.79277,-4.7557 1.50758,-6.1445 3.01896,-3.2715 4.53035,0.2957 4.9809,2.0336 5.32121,-0.4961 4.79079,-2.1805 6.86871,-0.5952 0,0 -0.49049,13.3802 -2.71668,8.8171 4.60258,8.3669 8.68046,7.7755 -0.94295,4.7004 -6.60445,11.4821 -0.52851,2.7222 1.24523,4.8473 4.86874,4.3532 0.79276,17.7523 1.69769,0.9387 4.22617,11.3676 3.095,15.0208 3.73568,8.4947 13.05682,16.7852 -0.6806,10.0666 10.15192,11.1977 3.4334,7.0545 1.99997,8.5806 3.13303,4.2883 3.73568,2.6116 0,0 -3.39729,3.5978 -4.22616,-0.3948 -5.69762,2.415 -7.92573,0.5417 -15.13092,-9.2654 -1.73571,4.1416 -3.20908,1.8714 -1.62164,2.9586 -1.99997,0.5914 -6.3402,-1.5279 -3.50944,-3.8459 -4.26419,0.4464 -11.73555,6.3066 -3.47142,4.9771 -0.60455,2.4647 1.77373,3.8916 -2.98094,7.6838 -3.32123,3.2011 0.60455,4.9255 -2.15016,5.3166 -8.45423,3.3974 -14.22599,-1.3792 -8.11394,0.4921 2.45243,7.3826 6.15199,7.2357 3.81173,7.0353 -2.68057,11.215 4.114,3.9336 5.13109,2.951 3.32124,8.2105 3.69956,2.2129 2.7528,10.2211 10.26599,13.9544 -1.35929,2.7489 0.94295,2.7527 -1.65967,8.8361 -7.28315,10.0648 -3.73568,2.2567 -4.6425,-1.4708 -6.79267,-7.2167 -12.75453,-3.6816 -4.98091,-2.995 0,0 -4.7927,-10.5091 -6.67859,-2.5067 -1.73571,-8.302 -5.9999,-13.3192 -9.62342,-10.9632 -0.79276,-7.7679 1.81176,-6.2473 -0.3403,-2.7052 -14.18798,-4.4295 -8.52837,-9.3474 -9.01886,-3.6417 -3.13303,-2.4132 -6.67859,-7.9737 -3.92579,-2.7585 -2.26422,-6.549 -9.62152,-9.0135 -5.35922,-7.8329 -8.60252,-7.3443 -1.47336,0.4941 -1.5456,3.0542 -2.37829,0.246 -11.69942,-7.8347 -8.94282,7.0468 -2.18817,0.395 -2.2262,-1.4307 -6.52841,-16.7109 -8.94472,-16.6691 -7.69759,-7.4015 -9.69755,-5.8203 -6.52841,-21.2796 -9.50935,-15.162 -0.90683,-9.3891 -4.3003,-8.056 0.0361,-1.5833 3.47142,-4.8436 -5.35732,-2.1251 -2.34027,-7.3195 -19.39701,-21.5696 1.50948,-3.2164 20.07571,-19.2575 -3.88587,-5.2499 -2.64254,-0.6944 -3.96191,-8.569 0,0 6.41624,-2.2797 4.34023,-3.6169 3.69766,-5.1525 3.0931,-8.0292 10.03786,-8.5767 4.03795,-6.5967 7.17099,-7.1402 2.30224,-1.0435 z"
     inkscape:connector-curvature="0" />
  <path
     id="AL-06"
     title="Korçë"
     d="m 508.23104,795.79848 22.79239,2.85192 22.86844,86.41393 10.22606,3.99458 4.90677,-0.90039 4.9809,0.6009 8.37819,2.69359 5.81169,-3.14378 4.6406,-10.68088 4.64251,-6.04146 16.30201,6.88848 4.67863,3.24489 2.26422,0.20027 2.49045,-2.69737 3.84785,0.4998 4.75467,-1.3468 2.34217,0.69821 4.90486,4.84156 2.64254,1.198 6.3383,8.93346 1.09503,48.81636 -2.41631,6.02813 -8.22609,6.07772 3.84784,1.59098 2.34217,2.39025 3.69765,0.10119 0.3384,12.34813 1.84978,2.68785 6.49039,3.48523 6.60445,7.7126 12.64237,21.68797 -1.32317,14.4196 1.17108,7.4056 -0.98097,2.3349 -2.86877,2.0374 0.45246,5.9118 -0.79276,3.428 -1.50758,1.3409 1.77373,8.5425 -1.24522,8.1933 -3.88777,2.0851 -3.39538,-1.4899 -6.15199,1.6882 -2.56459,5.3624 -0.64258,4.4161 -7.2071,4.7158 -1.05702,2.4303 -2.68056,-0.1487 -1.69579,5.4578 1.65967,5.2573 -0.26426,4.0671 -5.92385,7.7373 1.58362,2.2798 -11.16901,3.819 -7.62345,-6.5946 -7.65957,0.4445 -5.58546,1.9342 -3.13112,-0.7438 -3.13303,-2.7757 -4.56646,-1.0416 -4.15202,6.3448 -0.86691,6.545 -3.13113,3.867 -0.19011,3.2218 -3.84784,-0.4464 -6.26606,3.5694 -3.50754,3.4659 2.49045,6.5911 -2.03799,6.0433 2.18818,8.714 -0.94295,10.3489 -5.05695,2.9703 -0.45247,1.5834 1.13116,2.5237 -1.73571,-0.099 -3.73568,2.7737 -1.69959,3.3136 -0.3384,2.3271 2.34027,4.8969 -3.81172,3.8575 -6.71662,1.2857 -2.26422,7.2204 -6.41625,6.6269 -1.28324,3.2641 -0.64068,3.9545 0.90683,3.8058 4.18814,3.5082 0.48859,5.2898 -0.86691,4.3475 1.43344,4.0498 -1.35739,4.2981 -3.35926,3.3592 -2.18818,5.2346 -5.24516,1.5795 -5.35922,3.407 0.83078,2.0259 -1.96194,9.8702 7.01889,6.4668 -0.79276,2.3198 -3.32124,3.2562 -2.60452,6.7091 1.47336,7.0525 -1.2072,5.2767 0.67869,2.7126 -5.3212,0.8871 -2.52847,1.8752 -11.9998,-0.099 -1.77374,1.1827 -0.90683,2.7604 -4.07407,3.0561 0,0 -3.73568,-2.6116 -3.13303,-4.2883 -1.99997,-8.5807 -3.4334,-7.0544 -10.15192,-11.1978 0.6806,-10.0666 -13.05682,-16.7851 -3.73568,-8.4947 -3.095,-15.0208 -4.22617,-11.3676 -1.69769,-0.9387 -0.79276,-17.7523 -4.86874,-4.3533 -1.24523,-4.8472 0.52851,-2.7222 6.60445,-11.4822 0.94295,-4.7003 -8.68046,-7.7755 -4.60258,-8.3669 2.71668,-8.8172 0.49049,-13.3801 0,0 -0.79277,-9.912 -3.35926,-12.3481 -1.58362,-15.3774 -5.88773,-9.1797 1.05701,-4.2196 6.3402,-10.3262 1.73571,-6.4554 -0.45246,-2.8308 -10.52834,-2.2853 -8.64244,1.4899 -4.90486,-3.6761 -2.34027,-5.265 0.11407,-7.9511 -4.07598,-1.2895 -4.56646,-5.5189 -5.43337,-15.6597 -5.17102,-6.7645 -3.31933,-11.34088 -6.15199,-8.36117 0,0 -2.41441,-5.5741 13.24503,1.44407 2.67866,-2.09075 1.99996,-4.72904 2.07602,-1.29527 9.20707,2.24142 9.0949,-1.14646 7.96184,3.63406 2.79273,0.0515 2.9068,-7.17083 3.4334,-1.39254 2.26422,-2.3407 0.82889,-5.3776 4.00183,-4.13385 0.86691,-2.34255 2.45243,-19.78219 -8.11204,-12.36337 -7.92572,-15.5606 -10.03785,-11.77391 -5.1311,-10.08374 0.30228,-2.69549 7.28315,-8.93726 2.11213,-6.84271 1.47146,-14.68688 2.75471,-3.94881 10.15192,-1.7493 7.50938,-4.048 8.56449,-6.54891 8.07591,-0.70009 7.92573,-3.1991 4.37635,-0.40061 13.92562,2.00112 1.77373,1.19796 2.5665,6.40014 0.45247,-8.94872 4.37825,-19.50748 -4.53034,-13.10924 0,0 z"
     inkscape:connector-curvature="0" />
  <path
     id="AL-07"
     title="Kukës"
     d="m 320.75889,68.262851 2.49045,-0.103029 0.6787,2.304423 11.39524,4.709949 5.05695,3.941175 0.15209,4.963665 4.64061,4.961759 1.66157,6.905636 2.52847,1.535646 2.60262,3.630235 -2.03799,3.37459 0.19011,2.09841 10.26219,8.99641 2.34026,5.5722 0.30228,3.4757 -4.4524,3.62641 -2.37828,4.90645 11.77356,10.62553 0.22624,3.31927 1.81175,2.04308 -0.49048,8.42412 -2.86878,2.3483 3.7756,6.53173 0.11217,1.73596 -1.43344,1.94006 0.6787,1.73403 3.81172,1.07019 1.28325,1.99158 12.41424,-2.70503 5.81169,4.43906 7.96185,-6.32571 3.99993,0 2.86877,1.52991 3.50945,4.38758 -0.37642,3.57109 8.07401,2.04116 7.32117,3.51958 4.07598,6.73205 6.83068,1.2743 1.019,2.19187 5.50941,0.51125 6.94285,3.10945 5.96188,5.86406 0.79276,3.36319 7.5474,6.11587 1.16918,5.45198 8.83065,9.06702 3.01896,13.85131 4.94289,10.74191 -0.75474,1.98394 5.51131,6.92091 -0.53041,3.71415 4.19005,8.54621 -2.34027,7.3749 1.77374,5.28797 -4.07408,7.82896 5.92385,11.48584 2.67867,1.32202 6.34019,7.46837 1.16919,11.22261 1.77373,2.13465 4.30221,15.78567 4.07598,4.771 0.71672,6.49549 -2.68057,11.71672 -9.92379,6.23792 -2.60261,4.30937 -3.47333,1.41927 6.45427,15.96498 0.15018,3.69893 -7.84968,0.96338 -4.67862,3.34403 0,0 -4.03796,-2.63444 -2.45243,0.30334 -0.6787,2.58294 3.50755,2.43224 0.22623,2.63445 -11.28308,2.98923 -21.99963,-1.5719 -11.43327,0.76118 -1.09504,1.67109 1.13306,6.63284 -0.90683,3.84771 -10.34013,3.24103 -4.33833,2.53146 -4.56646,0.3033 -4.94288,-1.87328 -7.62345,-11.13869 -0.15209,-4.35514 2.64254,-6.68625 -0.67869,-10.94409 -1.32128,-2.07742 -10.41427,-8.00825 -2.94482,0.45593 -0.5266,5.98234 -8.79263,3.54627 -1.69959,2.27964 -9.32114,5.87742 -7.92382,2.58484 -3.47143,-2.73555 -2.52847,-0.20411 0,0 3.35926,-14.3912 -0.3403,-10.33936 17.73544,-19.07064 -3.65963,-17.80967 0.94295,-3.40133 1.92582,-1.9286 -0.37832,-3.50432 -1.47146,-2.68977 -4.52844,-2.28728 -1.96194,-5.0781 0,0 -3.50945,-2.18232 -3.69956,0.20219 -2.33836,-1.16747 -2.19008,-8.53476 -8.33826,-13.51752 -5.47329,3.45474 -3.28322,5.33759 -3.65963,-1.42501 -4.03796,0.30712 -1.16918,-1.06825 6.64057,-4.77674 3.88777,-5.54168 -1.69769,-13.01581 4.22616,-8.901 2.83076,-2.39028 0.41444,-2.69549 2.2262,-2.39217 7.01889,-3.91828 6.52841,-5.95563 3.47142,-8.65302 -0.90493,-1.62912 -5.05695,0.2556 -6.98087,-4.99037 -3.35926,-0.0515 -1.58552,-2.74889 -2.64064,0.45785 -2.71669,-5.143 -5.3212,-0.66384 -3.58549,1.17317 -5.43337,-1.52989 -2.15015,-1.22094 -5.66151,-6.877 -5.96187,0.66196 -2.5665,-1.98778 -2.30224,0.0515 -4.71665,-4.79007 -4.41438,-0.15243 -6.07594,-6.5222 -7.65957,-0.20411 -4.68053,-5.50543 -0.71672,-2.55054 -9.32114,2.90726 -5.3212,-0.40825 -9.39528,1.68255 -7.66147,-3.82482 -5.3212,0.20605 -3.7718,2.19184 -4.68053,8.00253 -7.58543,1.63102 -3.35735,3.71799 -1.92393,-2.5982 -8.49225,-6.36959 -0.94295,-4.74047 4.52844,-16.3179 -4.41437,-9.7938 -2.03799,-15.97264 -3.84975,-4.64508 -2.2262,-6.89419 0.22624,-3.06366 3.095,-6.63857 0.18821,-4.90454 -4.71665,-7.30623 -2.41631,-10.57783 0.86881,-4.90834 5.39534,-12.989095 0,0 0.98098,0.206024 2.11403,-2.865269 0.26425,-3.630228 4.15203,-0.103012 2.03608,-2.302514 5.133,0.717269 3.69765,-7.163167 7.3592,5.473002 2.64064,-3.477617 0.71862,-7.165076 2.82885,-0.356731 6.94475,-4.606935 4.11209,-0.768778 3.47143,2.867177 4.34023,0.768776 5.84971,-1.228518 9.13103,1.432636 4.03795,-9.879643 0.26426,-6.245594 12.30207,-4.250209 3.05699,-4.406636 9.13292,2.102211 2.64064,1.636754 4.56647,9.013572 z"
     inkscape:connector-curvature="0" />
  <path
     id="AL-08"
     title="Lezhë"
     d="m 125.8496,524.40117 -0.8688,0.0498 0.076,1.36203 -0.8688,-1.15982 -0.49049,3.88584 -0.60455,-6.05674 -2.03799,-4.64318 4.79459,6.56223 z m -12.39903,-9.71176 -0.92204,-3.66455 0.30228,-1.00913 1.58362,-0.10119 -0.96386,4.7748 z m 259.45954,-193.10603 1.96194,5.0781 4.52844,2.28538 1.47146,2.69167 0.37832,3.5024 -1.92582,1.9286 -0.94295,3.40133 3.65963,17.81159 -17.73544,19.06872 0.3403,10.34128 -3.35926,14.3912 0,0 -6.56643,0.55705 -4.26419,1.56996 -3.05698,10.68656 -5.24516,2.83477 -0.83079,15.08748 1.24523,1.97439 4.7927,1.61958 0.30227,8.70262 1.8878,9.86437 -4.26418,-0.25179 -21.05669,3.69319 -14.37808,0.90996 -1.24523,4.55158 -3.81172,3.53868 -0.79276,3.18385 -2.52848,1.31435 -3.69766,4.3475 -0.67869,5.50927 -4.07598,2.7794 -4.56646,-0.6562 -4.41438,-6.8236 -5.24516,-1.76842 -8.18997,4.09381 -2.64255,2.37501 -3.65963,7.93384 -9.24509,-2.77944 -4.90486,-3.23343 -4.75468,-1.56618 -10.11199,4.19489 -12.45227,-0.75731 -8.79263,-9.95597 -8.15195,8.74271 -9.32114,4.95222 9.05689,9.3455 2.98093,5.45394 0.90493,5.60462 -0.8688,10.0475 7.39721,10.54731 2.83075,18.56319 0,0 -10.07588,6.70726 -7.50938,3.17621 -27.05658,7.26045 -8.60442,0.95761 -11.77356,-1.05871 -12.6785,-5.59509 -14.11383,-4.28646 -3.4334,1.00913 0.038,-2.51997 -1.05702,-0.45401 -6.07594,0.95762 -5.54744,-3.47952 0,0 2.49046,-1.61387 1.92392,-3.42993 0.37832,-6.50696 3.47142,1.46319 1.62355,-1.51276 2.67866,-10.84872 2.07601,2.01827 0.45247,5.95373 2.03799,1.00912 -0.26426,-4.64124 1.69769,-5.29751 -1.09504,-7.16698 -3.16914,-0.60664 0.26425,-1.91717 -4.114,-2.11938 -1.01899,0.35291 0.26425,1.51466 -1.73571,0 -1.24143,0.72873 -1.73951,-0.42734 -2.18818,-3.43182 1.77374,-4.49247 -1.84978,-2.3731 4.67863,-11.31227 2.2262,-10.91357 -0.18821,-6.97433 -5.81169,-14.00202 -0.37833,-3.13618 3.47143,-6.423 1.8878,-0.40442 3.05698,1.51657 3.47143,-1.36586 1.50948,-8.14559 -0.6787,-8.50042 -0.94295,-3.89539 -2.37638,-2.78324 -1.84978,-0.40441 -1.09504,2.53142 -3.16915,-1.26668 -15.39708,-11.69379 -16.566262,-7.44359 0,0 2.490452,-5.57028 0.678696,-4.96369 -1.961944,-10.84297 -14.26402,-13.17986 -0.980972,-5.57603 4.792695,-2.73936 5.509414,0.35483 4.378253,4.61455 5.321204,2.73745 13.887604,11.15205 5.84971,3.44518 2.49045,0 2.98094,-2.02781 0.90683,-2.12892 -3.35926,-9.93495 2.37639,-4.20824 -1.47146,-11.20735 1.92392,-2.63637 3.92389,-1.31818 4.45239,0.86225 6.52841,3.95645 6.15199,0.20219 0.79276,2.84048 -1.32127,4.9198 1.13306,2.58484 11.32111,1.36967 12.07584,-1.87522 9.01886,4.20826 3.99993,4.30934 2.52848,4.81488 1.96194,0.81075 3.16915,-2.07743 5.92386,-6.64046 2.64254,-6.48979 0.076,-5.93274 7.24513,-1.97822 3.65963,-4.81867 3.43531,0.0515 2.18817,3.1438 4.15202,2.78896 5.133,0.30522 8.90669,-3.70272 1.50948,-1.97822 0.60266,-3.39942 5.01892,-3.24678 3.01896,-0.35482 7.28315,2.23192 5.32121,-5.88505 2.98093,-0.55702 3.01896,5.0743 10.30211,39.60059 1.96195,0.96146 3.54747,-3.59781 3.50944,-0.70964 5.24516,1.01296 4.18815,4.61076 2.79273,0.65812 7.5474,-12.87274 5.58546,-12.16687 8.30214,-4.41236 5.84971,-5.57985 2.67866,-6.54316 -0.038,-5.17542 1.62355,-3.50053 24.5281,-12.38434 23.51102,-8.93728 6.82498,-4.47148 z"
     inkscape:connector-curvature="0" />
  <path
     id="AL-10"
     title="Shkodër"
     d="m 183.284,16.516353 1.05702,6.972405 2.71669,1.896189 1.84787,4.61266 3.58549,3.639767 0.79277,5.637062 -1.39542,1.333435 -7.47135,-0.0515 -1.47146,3.790469 2.15205,5.173505 -1.96194,4.097598 0.11406,3.073202 -2.30224,1.383034 0.3403,2.149905 5.81169,10.751428 1.84978,9.877734 5.6615,2.968281 4.75467,7.367285 13.77354,7.979635 0,0 -5.39535,12.989093 -0.86881,4.90834 2.41631,10.57783 4.71665,7.30623 -0.18821,4.90454 -3.095,6.63857 -0.22623,3.06366 2.2262,6.89228 3.84784,4.64508 2.03799,15.97263 4.41437,9.79381 -4.52844,16.31787 0.94295,4.74049 8.49035,6.36959 1.92393,2.59818 3.35926,-3.71985 7.58542,-1.63104 4.67863,-8.00253 3.7737,-2.19187 5.3212,-0.20412 7.65957,3.8229 9.39718,-1.68255 5.32121,0.40823 9.32113,-2.9053 0.71672,2.54858 4.67863,5.50543 7.65957,0.20412 6.07594,6.52218 4.41438,0.15246 4.71665,4.79009 2.30224,-0.0496 2.5665,1.98776 5.96187,-0.66196 5.66151,6.87705 2.15015,1.22281 5.43337,1.52799 3.58549,-1.17127 5.32121,0.66194 2.71668,5.14298 2.64064,-0.45783 1.58552,2.74889 3.35926,0.0515 6.98088,4.99035 5.05695,-0.25368 0.90492,1.62912 -3.47142,8.65302 -6.52841,5.95563 -7.01889,3.91828 -2.2262,2.39217 -0.41444,2.69549 -2.83075,2.39028 -4.22617,8.901 1.69769,13.01581 -3.88587,5.53976 -6.64247,4.77674 1.16918,1.06825 4.03796,-0.3052 3.65963,1.42309 3.28322,-5.33567 5.47139,-3.4566 8.34016,13.51747 2.18818,8.53477 2.33836,1.16745 3.69766,-0.20219 3.50945,2.18424 0,0 -6.83069,4.4696 -23.51101,8.93726 -24.52811,12.38438 -1.62354,3.50048 0.038,5.17541 -2.67866,6.54321 -5.84591,5.57983 -8.30215,4.41234 -5.58545,12.16691 -7.54741,12.87272 -2.79273,-0.65814 -4.18814,-4.61077 -5.24516,-1.01293 -3.50944,0.70963 -3.54747,3.59779 -1.96195,-0.96145 -10.30211,-39.60059 -3.01896,-5.0743 -2.98094,0.55704 -5.3212,5.88505 -7.28315,-2.23194 -3.01896,0.35482 -5.01893,3.24681 -0.60265,3.39939 -1.50948,1.97821 -8.90669,3.70273 -5.133,-0.30522 -4.15202,-2.78897 -2.18818,-3.14378 -3.4353,-0.0515 -3.65963,4.81868 -7.24513,1.97821 -0.076,5.93277 -2.64255,6.48977 -5.92385,6.64045 -3.16915,2.07743 -1.96194,-0.81073 -2.52848,-4.81489 -3.99993,-4.30935 -9.01886,-4.20823 -12.07585,1.8752 -11.3211,-1.36969 -1.13306,-2.58484 1.32127,-4.91977 -0.79276,-2.84048 -6.15199,-0.20222 -6.52841,-3.95642 -4.45239,-0.86228 -3.92389,1.3182 -1.92393,2.63635 1.47146,11.20737 -2.37638,4.20821 3.35926,9.93497 -0.90683,2.12891 -2.98094,2.02785 -2.49045,0 -5.84972,-3.4452 -13.887596,-11.15205 -5.321204,-2.73745 -4.378254,-4.61457 -5.509413,-0.35482 -4.792695,2.73937 0.980972,5.57601 14.26402,13.17986 1.961944,10.84299 -0.678696,4.96366 -2.490453,5.57031 0,0 -16.075776,-4.96367 -12.640473,-1.8733 -4.754673,1.06446 -5.9999,6.78734 -3.811723,-2.07546 -2.188176,0.25368 1.583623,-6.07963 0.302277,-7.09259 2.037988,-4.35702 -4.340231,-1.62152 -1.69769,-4.86447 -7.209005,-2.38261 -1.317469,-2.94157 1.471459,-2.33113 6.904827,-1.77411 2.678662,-3.19338 -0.980972,-3.14378 -6.866805,-5.78203 0.03802,-7.86137 2.868773,-1.92862 9.207071,-0.86226 1.923922,-2.02971 -4.302209,-4.87018 1.961944,-6.64812 -1.018995,-5.17733 -2.642541,-4.11094 -0.94295,-16.65746 2.904895,-6.45163 0.980972,-11.53546 8.07591,-15.20003 -45.582887,-38.71928 25.661167,-30.81592 2.980939,-8.15516 9.509347,-11.87884 1.018994,-7.59809 14.151854,-16.42664 -2.037988,-4.18534 -1.018995,-7.70686 3.395381,-2.5524 -0.18821,-5.30896 1.50948,-3.06366 4.566464,-5.31085 2.340265,-1.22661 4.602584,-0.25562 5.81169,-3.88203 5.62348,-9.65646 1.169182,-5.21357 2.226199,-0.66384 0.906829,-4.44671 2.528474,-3.22008 5.05695,-2.19759 1.018994,-4.65273 3.055087,-2.45513 3.24519,-5.369982 0.75474,-3.735148 3.62161,-6.650016 3.69766,-4.297899 1.62355,-9.416085 14.94271,-8.599617 0.49049,-2.815668 4.6406,-2.817577 -1.01899,-8.040682 -1.39541,-2.201411 0.64067,-7.68395 18.37802,-25.371426 1.77373,-1.743578 4.34024,1.127413 1.8878,-0.564661 6.56643,-7.6400767 -0.076,-2.9244041 2.03799,-2.5658046 L 173.05794,0 l 3.47142,1.6405661 3.5855,7.7965028 5.50941,2.2052251 0.15019,1.947695 -2.49046,2.926313 z"
     inkscape:connector-curvature="0" />
  <path
     id="AL-11"
     title="Tiranë"
     d="m 244.98259,582.13956 8.07591,0.90614 15.73738,12.18786 8.15005,11.58127 5.73565,15.80283 3.92389,2.81762 7.209,1.2075 5.39535,3.67221 5.50941,7.24328 1.32127,7.8957 0.83079,0.10118 9.24509,-12.77543 4.94288,-0.9042 3.35926,2.61537 11.54734,17.85165 4.33833,4.8244 3.51135,0.80504 5.58355,-1.81037 5.28319,1.05683 2.79272,2.61344 0.98098,5.82785 0,0 -0.038,2.41316 -2.22619,1.4059 -18.34,6.93428 -6.98087,4.8206 -2.03799,4.82249 2.11403,7.63245 -0.90493,3.81528 -6.19001,3.21245 -11.69752,8.93345 -3.17105,0.80309 -5.20714,-1.40591 -8.90479,-5.61992 -5.6615,1.60626 -4.41438,4.9675 -11.17091,21.8214 -13.80966,9.47714 -6.49228,6.51648 -9.05689,3.85914 -3.7737,2.80614 -5.88583,0.80311 -2.86877,5.10867 -4.7908,2.30631 -2.79463,7.46459 -5.01702,-0.70203 -3.77371,2.70503 -3.28321,4.15674 -1.73571,0.5017 -3.32124,-1.30289 -8.5664,3.85722 -3.39538,-1.35251 -3.99993,-4.25785 -4.07598,0.50173 -3.28321,3.10562 -1.66157,8.56146 -12.37622,10.11047 -3.92579,11.90938 -6.79266,2.65348 -4.18815,4.05182 0,0 -6.34019,-6.25513 -4.71665,0.80122 -2.49046,3.2506 -1.2072,-1.35061 -0.56653,-3.60159 -4.15012,3.05219 -0.56653,-0.8508 1.69769,-3.1514 -1.8859,-0.54941 -2.5665,3.70081 -1.58552,0.35102 -3.50945,-4.00221 -2.45243,2.0011 -3.24519,-0.70013 -1.66157,0.8489 -1.13116,4.40474 -6.75464,0.599 -0.52851,2.3006 0.94295,3.80002 -0.94295,1.1522 -3.24519,-0.20029 -1.62355,-1.50131 -5.05505,0.15055 -4.152022,-2.00108 -1.583623,0.45019 -2.2281,3.15144 -2.678662,-3.65125 0.302276,6.05105 -1.849779,2.19949 -1.207204,-0.79931 -3.397281,-8.1513 -2.980939,-1.15224 -2.490453,2.6039 -1.13116,-1.40208 -2.152055,1.1999 1.209105,3.1514 2.452431,1.40022 -0.302276,1.69969 -1.547503,0.15244 -1.735712,-3.00262 -1.471459,0.20033 0.604553,3.30019 -2.152055,1.05111 -1.69769,2.80042 0.792762,5.5493 2.150154,1.7989 0.114067,2.8996 -4.944785,0.40061 -4.15012,1.99922 0,0 0.716718,-11.69765 5.321204,-18.35526 1.471458,-12.30805 -0.904928,-15.06841 -6.642474,-16.32553 8.037888,-1.00343 4.528441,-5.41003 1.057017,-8.86861 2.302243,-5.11248 1.018994,-6.06625 9.321137,-10.73045 3.621612,-8.97923 1.471458,-7.67442 -0.640673,-5.77061 0,0 10.188045,2.00684 13.32107,-2.60966 4.07597,2.25865 3.20717,3.91449 4.37636,-9.83768 10.79449,-13.55374 0.22624,-2.71264 -2.94482,-13.1093 0.11406,-5.47491 2.2262,-5.62751 0,-3.21818 -7.09494,-12.36531 1.17109,-10.51106 -2.03799,-13.38013 2.67866,-4.42955 3.09501,0.95762 5.50941,-3.47187 2.30224,0.5532 2.60452,2.768 1.50758,-0.10119 3.05698,-3.22009 4.52845,-0.50361 -0.86691,-5.53597 5.3193,-2.76988 0.94485,22.74664 7.58353,5.68284 9.92569,-0.70392 7.13106,-4.07469 4.90676,-6.33717 9.69755,-7.19559 12.22604,-1.76266 4.94478,-3.77523 3.50945,3.01982 2.90489,-0.65242 4.98091,-7.55044 4.86874,-4.78432 4.90486,-9.26541 3.13302,-3.3231 z"
     inkscape:connector-curvature="0" />
  <path
     id="AL-12"
     title="Vlorë"
     d="m 6.3382969,1088.031 3.4353038,1.3391 1.2832483,3.4224 -2.7927288,9.769 -2.4524304,-0.7937 L 3.7356789,1094.33 1.3193695,1092.2468 0,1087.9298 l 0.75474022,-4.8606 2.07601088,-0.2976 3.5075458,5.2594 z m 10.7944961,-73.5471 5.169115,1.242 6.226132,-6.5127 5.697623,-1.3431 14.037788,4.7254 1.735712,1.3906 2.376386,6.0644 5.433369,2.2872 1.433436,-0.9938 -0.980972,-2.4857 1.471458,-2.436 3.283215,-0.1487 7.961844,-4.5726 1.433436,1.3429 -1.961944,5.6677 2.528475,4.025 3.621612,-0.7953 2.264221,2.436 6.075944,1.6901 -3.35926,3.8763 0.190111,3.6761 1.735713,0.4462 1.659668,-2.0352 2.528475,2.4341 6.338296,-0.8948 1.471459,2.2357 -0.754741,1.8867 0.678696,1.242 4.452397,-0.9444 3.359263,2.1365 -0.30228,7.4514 1.96194,3.2773 3.77371,-1.4403 3.69765,-3.7753 4.7927,2.4838 -0.11407,1.6882 -2.94292,0.7956 -0.34029,1.3409 0.94485,1.9859 2.2262,-0.248 -0.64068,4.3686 1.16918,2.6801 3.47143,0.7956 1.2072,-2.8292 1.16919,0 1.84977,1.2896 1.50948,3.6761 1.62355,0.6944 3.73568,-4.172 3.28322,0.1984 10.18804,5.1621 2.33836,3.5252 4.71665,3.2259 7.0189,2.7298 1.77373,1.8351 6.30028,0.2498 4.114,-1.0433 4.22806,1.0433 0.15019,3.224 -5.88773,9.624 0,2.6784 2.37638,2.0831 5.92576,-2.6288 3.88586,0.4961 -0.45246,3.819 1.09504,5.3053 -2.26422,3.7693 -1.58363,9.2215 2.26423,0.1468 3.32123,3.3211 3.47143,0.6925 0.60265,4.5097 2.68056,1.5375 3.99994,5.4484 0,0 3.96191,8.569 2.64254,0.6943 3.88586,5.2499 -20.07571,19.2575 -1.50948,3.2183 19.39702,21.5696 2.34026,7.3196 5.35733,2.125 -3.47143,4.8436 -0.038,1.5833 4.30221,8.056 0.90683,9.3892 9.50935,15.162 6.5284,21.2777 9.69756,5.8221 7.69759,7.4016 8.94472,16.669 6.5284,16.7109 2.2262,1.4307 2.18818,-0.395 8.94281,-7.0468 11.69943,7.8348 2.37638,-0.2461 1.54561,-3.056 1.47145,-0.4942 8.60252,7.3444 5.35923,7.8328 9.62341,9.0135 2.26422,6.551 3.92389,2.7565 6.6805,7.9757 3.13112,2.4131 9.01886,3.6418 8.52838,9.3473 14.18797,4.4276 0.3403,2.7052 -1.81175,6.2474 0.79276,7.7678 9.62341,10.9633 5.9999,13.3172 1.73571,8.3039 6.6805,2.5048 4.79269,10.5092 0,0 -1.24522,2.6515 -4.41438,3.2906 6.6786,10.946 -1.47146,3.8763 -4.19004,4.5651 1.43343,3.1896 3.32124,3.1875 0.71672,3.3365 5.39535,3.8744 0.41444,3.5311 -3.62162,1.8141 -4.9809,5.6868 -5.9999,1.9132 -2.83075,5.784 -3.35926,1.9115 -0.64067,11.9093 -4.34024,-2.4017 -2.79272,-3.5787 -3.92389,-1.1273 -1.77374,0.492 0.11407,3.1361 -4.60259,5.9787 3.62162,7.0544 -1.92393,2.2529 -12.49028,0.6372 -13.16898,-4.5059 -9.92569,-0.391 -5.24516,-3.6246 -1.28325,-2.0583 -4.34023,-2.2051 -3.35926,-5.1945 -5.43337,0.4901 -4.26419,-4.1166 -7.209,-2.0087 -3.28322,0.8813 -2.45243,-4.3609 -2.37638,2.5963 -3.01896,-0.048 -2.45434,1.9115 -2.18817,-0.9805 -1.20721,4.0175 -0.64067,-3.1858 -2.03799,-0.5895 0.41444,2.2567 -4.34023,-0.246 -0.90683,-3.7256 1.54751,-1.3715 0.15018,-1.8143 -1.47145,0.7364 0,-2.6954 2.49045,-7.6 1.77373,-0.3912 1.05702,-2.2567 0.67869,-5.8375 -1.73571,-2.3061 2.79273,-4.0215 -2.07601,-1.1769 0.56653,1.9629 -1.16918,1.0777 -1.39542,-0.3929 0.22624,1.6674 -1.92393,-1.2267 0.0761,1.4708 -2.11213,0.6373 1.96194,0.9823 1.81176,-0.8354 -1.05702,1.423 -3.47142,-1.3239 -1.50948,-4.7577 2.45243,-4.9064 1.39541,0 0.22623,-2.7967 2.83075,0.048 1.39542,1.57 0.8688,-1.0777 -0.34029,-2.8463 1.69959,0.2937 -0.11407,-2.5027 2.18818,-1.032 -1.54751,-5.8889 -3.65963,-0.4922 1.16918,-1.6196 -1.16918,-0.5893 2.98094,-1.179 1.84978,-3.3861 -0.26426,-2.4552 0.60265,-1.1293 1.13116,0.5398 0.94486,-2.4551 -1.09504,-8.6433 4.37825,-4.1741 -0.64257,-7.9585 -2.64064,-5.9462 -3.05699,0.3454 -1.01899,2.0639 -5.01893,-2.9015 -0.038,1.7189 -1.69769,0.1 -2.07601,-1.8181 1.24522,-1.2781 -4.03795,-0.4407 -3.01896,-2.85 -1.39542,0.048 -0.67869,-3.6874 -1.47146,-1.2305 0.94295,-1.3259 -6.71662,0.9329 -1.73571,-3.9813 -1.13116,1.6712 -1.58552,-1.8676 -4.4524,1.0321 -1.92392,-3.3919 0.11406,-1.7703 3.54747,1.1313 -0.98097,-2.5563 3.05508,-4.2291 2.41631,-2.2646 2.30224,0.6889 0.86881,-0.6889 -1.35929,-1.2303 0.3403,-6.3448 -8.26412,-11.3657 -1.09314,-5.66 -2.94292,-2.6591 -0.64067,-2.6078 -3.01896,-3.3974 -1.39542,-4.481 -10.6424,-16.2531 -3.43341,-3.3995 -6.98087,-3.7922 -7.50938,-0.3951 -1.81176,2.9073 -2.7547,-1.4288 -0.52851,1.5757 -2.18818,-0.3929 -1.43343,-1.4785 0.30227,-1.8714 3.5855,0.246 0.22623,-1.1331 -2.18818,-2.6116 -2.71668,-0.5913 1.13116,-0.74 -1.13116,-2.3178 -3.32124,-1.9211 -1.77374,0.1966 -0.33839,6.8521 -1.8878,-1.5776 -1.50948,-9.4637 -4.03796,-0.8355 -2.75471,1.0834 1.24523,-2.3655 -1.28325,-1.9725 1.99997,-2.1689 -1.16918,-2.5658 -3.28322,-1.5776 -3.4353,0.6905 -3.43341,-4.2902 -3.69765,-0.4426 -0.038,-1.5298 -5.39535,-0.048 0.56653,-3.2067 -0.86881,-1.0357 -9.39528,-1.6292 -1.81175,-1.1828 -4.4524,0.4426 -2.64064,-1.7761 -0.98097,-2.8614 -2.94292,-2.8137 -6.03792,-2.2681 -7.35919,-6.0207 -5.1311,-1.8255 -5.13299,-5.7248 -16.67843,-6.1711 -5.661501,-4.0005 -4.640607,-1.5299 -8.754606,-7.7526 -5.171016,-1.8274 -1.811757,-3.1134 -2.45243,-1.5318 -5.433369,-4.6929 -0.944852,-1.7283 -2.376386,-2.8175 -1.057016,-3.7064 -7.056916,-6.572 -3.547469,-7.2183 -9.132927,-9.4945 -2.866873,-4.4999 0.302277,-3.3136 2.226198,-0.1985 -1.999966,-2.5734 -0.452464,-5.986 -1.395414,-5.5934 -1.999967,-2.6228 0.378321,-1.2363 -2.680563,-1.7816 -5.885833,-11.732 -6.716618,-7.478 -0.03802,-1.4861 -5.923855,-5.3488 0.528508,-1.1885 -2.716685,-2.2301 -1.057016,-0.4445 -3.8497457,-2.6744 0.8688067,-1.7857 3.811723,-0.1486 2.076011,-3.6664 5.357325,-3.0714 3.923889,3.7676 3.659634,-1.1407 6.604452,5.6486 4.226165,5.5988 3.35926,1.881 0.75474,2.4265 5.923855,6.1425 3.471425,6.2877 1.999966,8.6148 -1.397315,0.5952 1.057017,2.2281 -1.133061,2.8215 0.980972,1.6824 -0.716718,1.4842 4.566464,5.6904 0.338397,1.5833 -1.169182,0.8394 1.547503,1.7818 4.566463,0.1486 8.151955,-2.8691 3.659635,-2.8215 2.942916,-4.2063 3.847844,-2.3272 0.452464,-3.5139 -1.849779,-4.7023 0.868807,-3.9603 -1.321271,-2.9205 2.302243,-4.8035 -2.037988,-3.3174 -0.378321,-2.8213 1.057016,-8.0731 3.35926,-4.5097 1.433436,-3.9623 0,-7.7812 -2.07411,-1.6863 -0.980972,1.1407 -1.359293,-0.3967 -0.264254,-1.3373 -7.585424,-4.3132 -13.094838,-17.5043 -5.018928,-2.5811 -2.716684,1.0911 -1.397315,-1.6863 -5.545535,-9.2769 0.904928,-2.9281 -3.923889,-2.7795 -0.792762,-3.325 1.50948,-0.048 0.830785,-2.186 -2.754707,-10.1754 0.94295,-1.0434 -1.623547,-2.1862 0.414442,2.0355 -0.716718,-0.7459 -12.982672,-27.9182 -10.977003,-13.2086 z"
     inkscape:connector-curvature="0" />
</svg>
